<?xml version="1.0" encoding="iso-8859-1"?>
<!-- Generator: Adobe Illustrator 17.1.0, SVG Export Plug-In . SVG Version: 6.00 Build 0)  -->
<!DOCTYPE svg PUBLIC "-//W3C//DTD SVG 1.1//EN" "http://www.w3.org/Graphics/SVG/1.1/DTD/svg11.dtd">
<svg version="1.1" id="Capa_1" xmlns="http://www.w3.org/2000/svg" xmlns:xlink="http://www.w3.org/1999/xlink" x="0px" y="0px"
	 viewBox="0 0 366 366" style="enable-background:new 0 0 366 366;fill:#F5B7D0" xml:space="preserve">
<path d="M350,284h-5v-85.439C345,181.71,331.025,168,313.848,168H191v-58h21c8.822,0,16-7.178,16-16V34c0-8.822-7.178-16-16-16h-69
	c-8.822,0-16,7.178-16,16v60c0,8.822,7.178,16,16,16h18v58H48.651C31.464,168,18,181.424,18,198.561V284h-2c-8.822,0-16,7.178-16,16
	v32c0,8.822,7.178,16,16,16h38c8.822,0,16-7.178,16-16v-32c0-8.822-7.178-16-16-16h-6v-85.439c0-0.374,0-0.561,0.651-0.561H161v86
	h-3c-8.822,0-16,7.178-16,16v32c0,8.822,7.178,16,16,16h38c8.822,0,16-7.178,16-16v-32c0-8.822-7.178-16-16-16h-5v-86h122.848
	c0.668,0,1.152,0.335,1.152,0.561V284h-3c-8.822,0-16,7.178-16,16v32c0,8.822,7.178,16,16,16h38c8.822,0,16-7.178,16-16v-32
	C366,291.178,358.822,284,350,284z"/>
</svg>
