<svg xmlns="http://www.w3.org/2000/svg" viewBox="0 0 318.3 183.78"><defs><style>.cls-2{fill:#f5b7d0;}.cls-1{fill:#ffff77;}</style></defs><g id="Layer_2" data-name="Layer 2"><g id="Layer_1-2" data-name="Layer 1"><path class="cls-1" d="M36.16,158a35.65,35.65,0,0,1-18-4.58A33.67,33.67,0,0,1,5.59,140.86a37.49,37.49,0,0,1,0-36A33.88,33.88,0,0,1,18.15,92.4a35.7,35.7,0,0,1,18-4.58,33.88,33.88,0,0,1,16.27,3.9,29.87,29.87,0,0,1,9.45,7.83V64.66a4.46,4.46,0,0,1,1.35-3.41,5.08,5.08,0,0,1,6.7,0,4.6,4.6,0,0,1,1.27,3.39v58.93a34.74,34.74,0,0,1-4.78,17.59,34.31,34.31,0,0,1-12.5,12.31A35.11,35.11,0,0,1,36.16,158Zm0-61.36a25.49,25.49,0,0,0-22.44,12.8,26.4,26.4,0,0,0-3.4,13.4,26.71,26.71,0,0,0,3.41,13.48,25.36,25.36,0,0,0,22.43,12.85,25.36,25.36,0,0,0,13.21-3.46,25.09,25.09,0,0,0,9.16-9.39,27.06,27.06,0,0,0,3.35-13.48,26.74,26.74,0,0,0-3.35-13.41A25.13,25.13,0,0,0,36.16,96.65Z"/><path class="cls-1" d="M66.54,61a3.39,3.39,0,0,1,3.66,3.66v58.93a33.28,33.28,0,0,1-16.78,29A33.93,33.93,0,0,1,36.16,157a34.5,34.5,0,0,1-17.51-4.46,32.55,32.55,0,0,1-12.2-12.2,36.54,36.54,0,0,1,0-35,32.68,32.68,0,0,1,12.2-12.14,34.49,34.49,0,0,1,17.51-4.45A32.77,32.77,0,0,1,52,92.6a28.4,28.4,0,0,1,10.92,10.12V64.66a3.47,3.47,0,0,1,1-2.68,3.67,3.67,0,0,1,2.62-1M36.16,150.18A26,26,0,0,0,59.4,136.82a27.88,27.88,0,0,0,3.48-14A27.56,27.56,0,0,0,59.4,109a26.12,26.12,0,0,0-23.24-13.3A26.5,26.5,0,0,0,12.86,109a27.19,27.19,0,0,0-3.54,13.9,27.5,27.5,0,0,0,3.54,14,26.39,26.39,0,0,0,23.3,13.36M66.54,59a5.74,5.74,0,0,0-4,1.52,5.49,5.49,0,0,0-1.66,4.14V96.87a31.75,31.75,0,0,0-8-6,34.91,34.91,0,0,0-16.75-4,36.5,36.5,0,0,0-18.5,4.72A34.74,34.74,0,0,0,4.72,104.41,36.27,36.27,0,0,0,0,122.85a36.64,36.64,0,0,0,4.72,18.51A34.64,34.64,0,0,0,17.66,154.3,36.6,36.6,0,0,0,36.16,159a36.1,36.1,0,0,0,18.26-4.66A35.3,35.3,0,0,0,72.2,123.61V64.66A5.36,5.36,0,0,0,66.54,59ZM36.16,148.18a24.38,24.38,0,0,1-21.57-12.35,25.7,25.7,0,0,1-3.27-13A25.35,25.35,0,0,1,14.59,110a24.47,24.47,0,0,1,21.57-12.3,24.11,24.11,0,0,1,21.5,12.29,25.66,25.66,0,0,1,3.22,12.91,26,26,0,0,1-3.22,13,24,24,0,0,1-21.5,12.34Z"/><path style="fill:white;" d="M173.81,99a35.65,35.65,0,0,1-18-4.58,33.77,33.77,0,0,1-12.57-12.57A35.4,35.4,0,0,1,138.65,64a35.65,35.65,0,0,1,4.58-18A33.85,33.85,0,0,1,155.8,33.4a35.7,35.7,0,0,1,18-4.58,35.31,35.31,0,0,1,17.94,4.58A33.91,33.91,0,0,1,204.26,46a35.68,35.68,0,0,1,4.59,18,35.41,35.41,0,0,1-4.59,17.88,33.81,33.81,0,0,1-12.5,12.57A35.37,35.37,0,0,1,173.81,99Zm0-61.36A25.39,25.39,0,0,0,151.37,50.5,26.71,26.71,0,0,0,148,64a26.46,26.46,0,0,0,3.4,13.35,25.39,25.39,0,0,0,22.44,12.85A25.36,25.36,0,0,0,187,86.72a25.09,25.09,0,0,0,9.16-9.39,27.06,27.06,0,0,0,3.35-13.48,26.84,26.84,0,0,0-3.35-13.35A25.09,25.09,0,0,0,187,41.11,25.38,25.38,0,0,0,173.81,37.65Z"/><path style="fill:white;" d="M173.81,29.82a34.13,34.13,0,0,1,17.44,4.45,32.68,32.68,0,0,1,12.14,12.2A34.5,34.5,0,0,1,207.85,64a34.23,34.23,0,0,1-4.46,17.38,32.61,32.61,0,0,1-12.14,12.2,36.54,36.54,0,0,1-34.95,0,32.48,32.48,0,0,1-12.2-12.2A34.22,34.22,0,0,1,139.65,64a34.49,34.49,0,0,1,4.45-17.51,32.55,32.55,0,0,1,12.2-12.2,34.47,34.47,0,0,1,17.51-4.45m0,61.36a26,26,0,0,0,23.24-13.36,27.88,27.88,0,0,0,3.48-14A27.65,27.65,0,0,0,197.05,50a26,26,0,0,0-23.24-13.36A26.36,26.36,0,0,0,150.51,50,27.53,27.53,0,0,0,147,64a27.26,27.26,0,0,0,3.54,13.84,26.36,26.36,0,0,0,23.3,13.36m0-63.36a36.66,36.66,0,0,0-18.51,4.71,34.68,34.68,0,0,0-12.93,12.94A36.67,36.67,0,0,0,137.65,64a36.39,36.39,0,0,0,4.72,18.38A34.68,34.68,0,0,0,155.3,95.3,36.63,36.63,0,0,0,173.81,100a36.24,36.24,0,0,0,18.45-4.72,34.86,34.86,0,0,0,12.87-12.93A36.39,36.39,0,0,0,209.85,64a36.67,36.67,0,0,0-4.72-18.51,34.86,34.86,0,0,0-12.87-12.93,36.34,36.34,0,0,0-18.45-4.72Zm0,61.36a24.38,24.38,0,0,1-21.57-12.35A25.45,25.45,0,0,1,149,64a25.72,25.72,0,0,1,3.27-13,25.31,25.31,0,0,1,34.27-9,24.26,24.26,0,0,1,8.8,9,25.9,25.9,0,0,1,3.22,12.86,26.12,26.12,0,0,1-3.22,13,24,24,0,0,1-21.5,12.34Z"/><path style="fill:white;" d="M250.54,99a35.64,35.64,0,0,1-18-4.58A33.63,33.63,0,0,1,220,81.86,35.41,35.41,0,0,1,215.38,64,35.66,35.66,0,0,1,220,46,33.7,33.7,0,0,1,232.54,33.4a37.56,37.56,0,0,1,36,0A34,34,0,0,1,281,46a35.68,35.68,0,0,1,4.58,18A35.4,35.4,0,0,1,281,81.86a33.91,33.91,0,0,1-12.51,12.57A35.32,35.32,0,0,1,250.54,99Zm0-61.36A25.39,25.39,0,0,0,228.11,50.5,26.71,26.71,0,0,0,224.7,64a26.46,26.46,0,0,0,3.41,13.35,26.31,26.31,0,0,0,35.65,9.39,25.14,25.14,0,0,0,9.15-9.39,27,27,0,0,0,3.35-13.48,26.73,26.73,0,0,0-3.35-13.35,25,25,0,0,0-22.37-12.85Z"/><path style="fill:white;" d="M250.54,29.82A34.14,34.14,0,0,1,268,34.27a32.75,32.75,0,0,1,12.14,12.2A34.49,34.49,0,0,1,284.58,64a34.22,34.22,0,0,1-4.45,17.38A32.68,32.68,0,0,1,268,93.56a36.54,36.54,0,0,1-35,0,32.48,32.48,0,0,1-12.2-12.2A34.23,34.23,0,0,1,216.38,64a34.5,34.5,0,0,1,4.46-17.51A32.55,32.55,0,0,1,233,34.27a34.46,34.46,0,0,1,17.5-4.45m0,61.36a26,26,0,0,0,23.25-13.36,28,28,0,0,0,3.47-14A27.75,27.75,0,0,0,273.79,50a26.83,26.83,0,0,0-46.55,0,27.53,27.53,0,0,0-3.54,14,27.26,27.26,0,0,0,3.54,13.84,26.39,26.39,0,0,0,23.3,13.36m0-63.36A36.62,36.62,0,0,0,232,32.53,34.78,34.78,0,0,0,219.1,45.47,36.67,36.67,0,0,0,214.38,64a36.39,36.39,0,0,0,4.72,18.38A34.78,34.78,0,0,0,232,95.3a36.6,36.6,0,0,0,18.5,4.71A36.19,36.19,0,0,0,269,95.29a34.72,34.72,0,0,0,12.87-12.93A36.39,36.39,0,0,0,286.58,64a36.67,36.67,0,0,0-4.72-18.51A34.72,34.72,0,0,0,269,32.54a36.31,36.31,0,0,0-18.45-4.72Zm0,61.36A24.38,24.38,0,0,1,229,76.83,25.35,25.35,0,0,1,225.7,64,25.73,25.73,0,0,1,229,51a25.31,25.31,0,0,1,34.27-9A24.16,24.16,0,0,1,272,51a25.79,25.79,0,0,1,3.22,12.86,26,26,0,0,1-3.22,13,24,24,0,0,1-21.5,12.34Z"/><path style="fill:white;" d="M310.2,98.28a14.8,14.8,0,0,1-8.81-2.75,17.9,17.9,0,0,1-5.95-7.48,26.69,26.69,0,0,1-2.1-10.9V5.66a4.49,4.49,0,0,1,1.35-3.41A4.65,4.65,0,0,1,298,1a4.6,4.6,0,0,1,3.39,1.27,4.6,4.6,0,0,1,1.27,3.39V77.15a15.47,15.47,0,0,0,2.21,8.66A6.15,6.15,0,0,0,310.2,89h3.05a3.83,3.83,0,0,1,2.95,1.32,4.93,4.93,0,0,1,1.1,3.34,4.65,4.65,0,0,1-1.25,3.31,4.46,4.46,0,0,1-3.41,1.35Z"/><path style="fill:white;" d="M298,2a3.62,3.62,0,0,1,2.68,1,3.62,3.62,0,0,1,1,2.68V77.15A16.34,16.34,0,0,0,304,86.36,7.14,7.14,0,0,0,310.2,90h3.05a2.81,2.81,0,0,1,2.2,1,4,4,0,0,1,.85,2.68,3.69,3.69,0,0,1-1,2.63,3.5,3.5,0,0,1-2.68,1H310.2A13.79,13.79,0,0,1,302,94.72a17,17,0,0,1-5.62-7.08,25.53,25.53,0,0,1-2-10.49V5.66a3.5,3.5,0,0,1,1-2.68A3.67,3.67,0,0,1,298,2m0-2a5.7,5.7,0,0,0-4,1.52,5.48,5.48,0,0,0-1.67,4.14V77.15a27.66,27.66,0,0,0,2.19,11.31,18.91,18.91,0,0,0,6.28,7.89,15.82,15.82,0,0,0,9.39,2.93h2.44a5.47,5.47,0,0,0,4.14-1.66,5.74,5.74,0,0,0,1.52-4,5.87,5.87,0,0,0-1.35-4,4.8,4.8,0,0,0-3.7-1.66H310.2a5.15,5.15,0,0,1-4.49-2.7,14.51,14.51,0,0,1-2-8.11V5.66a5.56,5.56,0,0,0-1.56-4.1A5.56,5.56,0,0,0,298,0Z"/><path style="fill:white;" d="M116.56,158a35.65,35.65,0,0,1-18-4.58A33.77,33.77,0,0,1,86,140.86,37.44,37.44,0,0,1,86,105,33.85,33.85,0,0,1,98.55,92.4a35.68,35.68,0,0,1,18-4.58A35.31,35.31,0,0,1,134.5,92.4,33.91,33.91,0,0,1,147,105a37.37,37.37,0,0,1,0,35.89,33.81,33.81,0,0,1-12.5,12.57A35.35,35.35,0,0,1,116.56,158Zm0-61.36a25.38,25.38,0,0,0-22.44,12.86,28.14,28.14,0,0,0,0,26.82,26.31,26.31,0,0,0,35.65,9.39,25.09,25.09,0,0,0,9.16-9.39,28.53,28.53,0,0,0,0-26.83,25,25,0,0,0-22.37-12.85Z"/><path style="fill:white;" d="M116.56,88.82A34.13,34.13,0,0,1,134,93.27a32.68,32.68,0,0,1,12.14,12.2,36.35,36.35,0,0,1,0,34.89A32.61,32.61,0,0,1,134,152.56a36.46,36.46,0,0,1-34.95,0,32.48,32.48,0,0,1-12.2-12.2,36.42,36.42,0,0,1,0-34.89,32.55,32.55,0,0,1,12.2-12.2,34.47,34.47,0,0,1,17.51-4.45m0,61.36a26,26,0,0,0,23.24-13.36,29.52,29.52,0,0,0,0-27.81,26,26,0,0,0-23.24-13.36A26.36,26.36,0,0,0,93.26,109a29.08,29.08,0,0,0,0,27.81,26.36,26.36,0,0,0,23.3,13.36m0-63.36a36.57,36.57,0,0,0-18.51,4.72,34.59,34.59,0,0,0-12.93,12.93,38.4,38.4,0,0,0,0,36.89A34.68,34.68,0,0,0,98.05,154.3,36.64,36.64,0,0,0,116.56,159,36.24,36.24,0,0,0,135,154.29a34.86,34.86,0,0,0,12.87-12.93,38.4,38.4,0,0,0,0-36.89A34.86,34.86,0,0,0,135,91.54a36.34,36.34,0,0,0-18.45-4.72Zm0,61.36A24.38,24.38,0,0,1,95,135.83,25.45,25.45,0,0,1,91.72,123,25.72,25.72,0,0,1,95,110a25.31,25.31,0,0,1,34.27-9,24.26,24.26,0,0,1,8.8,9,27.55,27.55,0,0,1,0,25.85,24,24,0,0,1-21.5,12.34Z"/><path style="fill:white;" d="M193.78,182.78c-6.88,0-12.84-1.31-17.73-3.9A37.67,37.67,0,0,1,164,169a5,5,0,0,1-1.19-3.18,3.88,3.88,0,0,1,1.6-3.1,4.69,4.69,0,0,1,2.78-.88,6.29,6.29,0,0,1,.85.06,4.38,4.38,0,0,1,3.16,2,29.56,29.56,0,0,0,9.29,7.21A29.11,29.11,0,0,0,193.78,174a24.25,24.25,0,0,0,13-3.51,25,25,0,0,0,9-9.69,29.1,29.1,0,0,0,3.3-13.86V145.3a28,28,0,0,1-9.74,8.87,32.54,32.54,0,0,1-16,3.84,36.16,36.16,0,0,1-18.18-4.52A32.93,32.93,0,0,1,162.66,141,35.93,35.93,0,0,1,158.13,123a35.41,35.41,0,0,1,4.66-18.2,33.73,33.73,0,0,1,12.63-12.44,38.1,38.1,0,0,1,36,0,33.2,33.2,0,0,1,12.39,12.45A36.17,36.17,0,0,1,228.33,123v23.91a37.33,37.33,0,0,1-4.51,18.29,34.2,34.2,0,0,1-12.32,12.88A33.73,33.73,0,0,1,193.78,182.78Zm-.49-86.13A26.72,26.72,0,0,0,179.88,100a23.7,23.7,0,0,0-9.14,9.25A28,28,0,0,0,167.45,123a27.71,27.71,0,0,0,3.29,13.6,23.79,23.79,0,0,0,9.14,9.26,26.71,26.71,0,0,0,13.41,3.34,26.35,26.35,0,0,0,13.35-3.34,23.91,23.91,0,0,0,9.08-9.26A27.63,27.63,0,0,0,219,123a27.92,27.92,0,0,0-3.29-13.73,23.91,23.91,0,0,0-9.08-9.26A26.35,26.35,0,0,0,193.29,96.65Z"/><path style="fill:white;" d="M193.29,88.82a34.66,34.66,0,0,1,17.63,4.39,32,32,0,0,1,12,12.08A35,35,0,0,1,227.33,123h-4l-3.3,4.51v14.13c-.23.46-.47.92-.73,1.36a26.87,26.87,0,0,1-10.49,10.31,31.35,31.35,0,0,1-15.5,3.73,35,35,0,0,1-17.69-4.4,31.83,31.83,0,0,1-12.07-12.08,34.74,34.74,0,0,1-4.4-17.56,34.26,34.26,0,0,1,4.52-17.69,32.61,32.61,0,0,1,12.26-12.08,34.59,34.59,0,0,1,17.38-4.39m0,61.36a27.31,27.31,0,0,0,13.85-3.47,24.76,24.76,0,0,0,9.46-9.64A28.64,28.64,0,0,0,220,123a28.93,28.93,0,0,0-3.41-14.22,24.74,24.74,0,0,0-9.46-9.63,27.21,27.21,0,0,0-13.85-3.48,27.53,27.53,0,0,0-13.9,3.48,24.62,24.62,0,0,0-9.52,9.63A28.83,28.83,0,0,0,166.45,123a28.54,28.54,0,0,0,3.42,14.09,24.65,24.65,0,0,0,9.52,9.64,27.63,27.63,0,0,0,13.9,3.47m34-27.2v23.91a36.11,36.11,0,0,1-4.39,17.81,33,33,0,0,1-12,12.51,32.55,32.55,0,0,1-17.2,4.57q-10.12,0-17.26-3.78a36.55,36.55,0,0,1-11.77-9.64,4,4,0,0,1-1-2.56,2.9,2.9,0,0,1,1.22-2.32,3.67,3.67,0,0,1,2.15-.66,4.51,4.51,0,0,1,.72.05,3.39,3.39,0,0,1,2.5,1.59A30.41,30.41,0,0,0,180,172a29.94,29.94,0,0,0,13.78,3,25.09,25.09,0,0,0,13.48-3.66,25.93,25.93,0,0,0,9.34-10.07A30,30,0,0,0,220,146.89v-5.27a30.36,30.36,0,0,0,3.05-13.76l4.27-4.88m-34-36.16a36.75,36.75,0,0,0-18.37,4.65,34.86,34.86,0,0,0-13,12.8A36.5,36.5,0,0,0,157.13,123a36.91,36.91,0,0,0,4.66,18.56,34,34,0,0,0,12.82,12.82A37.15,37.15,0,0,0,193.29,159a33.48,33.48,0,0,0,16.47-4,29.24,29.24,0,0,0,8.22-6.72,27.65,27.65,0,0,1-3.15,12,24.06,24.06,0,0,1-8.62,9.31A23.24,23.24,0,0,1,193.78,173a28.08,28.08,0,0,1-12.87-2.77,28.63,28.63,0,0,1-8.94-6.92,5.45,5.45,0,0,0-3.82-2.37,7,7,0,0,0-1-.07,5.63,5.63,0,0,0-3.3,1l-.1.08a4.85,4.85,0,0,0-2,3.88,6.06,6.06,0,0,0,1.41,3.81,39,39,0,0,0,12.4,10.16c5,2.66,11.16,4,18.2,4A34.77,34.77,0,0,0,212,178.92a35.23,35.23,0,0,0,12.67-13.25,38.27,38.27,0,0,0,4.64-18.78V123a37.18,37.18,0,0,0-4.65-18.69,34.11,34.11,0,0,0-12.76-12.81,36.73,36.73,0,0,0-18.63-4.66Zm0,61.36A25.73,25.73,0,0,1,180.38,145a22.77,22.77,0,0,1-8.76-8.87A26.73,26.73,0,0,1,168.45,123a27,27,0,0,1,3.17-13.25,22.84,22.84,0,0,1,8.76-8.87,25.73,25.73,0,0,1,12.91-3.21,25.4,25.4,0,0,1,12.85,3.21,22.92,22.92,0,0,1,8.71,8.87,29.09,29.09,0,0,1,0,26.37,22.92,22.92,0,0,1-8.71,8.87,25.4,25.4,0,0,1-12.85,3.21Z"/><path class="cls-2" d="M97,99a35.21,35.21,0,0,1-17.7-4.52A33.84,33.84,0,0,1,66.74,82.17a36,36,0,0,1-4.83-17.56V5.66a4.46,4.46,0,0,1,1.35-3.41,5.08,5.08,0,0,1,6.7,0,4.6,4.6,0,0,1,1.27,3.39V40.55a29.94,29.94,0,0,1,9.44-7.83A33.92,33.92,0,0,1,97,28.82a35.64,35.64,0,0,1,18,4.58,33.76,33.76,0,0,1,12.57,12.51,35.32,35.32,0,0,1,4.59,17.94,35.58,35.58,0,0,1-4.59,18A33.63,33.63,0,0,1,115,94.43,35.64,35.64,0,0,1,97,99Zm0-61.36A25.28,25.28,0,0,0,74.58,50.44a26.74,26.74,0,0,0-3.35,13.41,27.06,27.06,0,0,0,3.35,13.48,25,25,0,0,0,9.21,9.39,25.79,25.79,0,0,0,35.59-9.39,26.71,26.71,0,0,0,3.41-13.48,26.31,26.31,0,0,0-3.41-13.4,25.8,25.8,0,0,0-9.22-9.34A25.38,25.38,0,0,0,97,37.65Z"/><path class="cls-2" d="M66.57,2a3.62,3.62,0,0,1,2.68,1,3.62,3.62,0,0,1,1,2.68V43.72A28.26,28.26,0,0,1,81.15,33.6,32.77,32.77,0,0,1,97,29.82a34.52,34.52,0,0,1,17.51,4.45,32.75,32.75,0,0,1,12.2,12.14,34.23,34.23,0,0,1,4.45,17.44,34.57,34.57,0,0,1-4.45,17.51,32.62,32.62,0,0,1-12.2,12.2A34.52,34.52,0,0,1,97,98a34,34,0,0,1-17.2-4.39,32.61,32.61,0,0,1-12.14-12,34.84,34.84,0,0,1-4.7-17.08V5.66A3.47,3.47,0,0,1,64,3a3.67,3.67,0,0,1,2.62-1M97,91.18a26.2,26.2,0,0,0,23.3-13.36,27.5,27.5,0,0,0,3.54-14A27.16,27.16,0,0,0,120.25,50a26.68,26.68,0,0,0-9.58-9.7,26.84,26.84,0,0,0-37,9.7,27.53,27.53,0,0,0-3.48,13.9,27.88,27.88,0,0,0,3.48,14,25.91,25.91,0,0,0,9.57,9.76A26.39,26.39,0,0,0,97,91.18M66.57,0a5.7,5.7,0,0,0-4,1.52,5.48,5.48,0,0,0-1.67,4.14v59a36.92,36.92,0,0,0,5,18A34.87,34.87,0,0,0,78.75,95.36,36.19,36.19,0,0,0,97,100a36.5,36.5,0,0,0,18.5-4.72,34.68,34.68,0,0,0,12.94-12.93,36.67,36.67,0,0,0,4.72-18.51,36.3,36.3,0,0,0-4.72-18.44,34.82,34.82,0,0,0-12.94-12.87A36.53,36.53,0,0,0,97,27.82a34.88,34.88,0,0,0-16.75,4,31.34,31.34,0,0,0-8,6V5.66a5.6,5.6,0,0,0-1.56-4.1A5.56,5.56,0,0,0,66.57,0ZM97,89.18A24.55,24.55,0,0,1,84.3,85.86a24,24,0,0,1-8.85-9,26,26,0,0,1-3.22-13,25.76,25.76,0,0,1,3.21-12.91,24.28,24.28,0,0,1,8.86-9,25.86,25.86,0,0,1,25.35,0,24.87,24.87,0,0,1,8.87,9,25.35,25.35,0,0,1,3.27,12.9,25.72,25.72,0,0,1-3.27,13,24.7,24.7,0,0,1-8.87,9A24.36,24.36,0,0,1,97,89.18Z"/></g></g></svg>